<svg width="32" height="32" viewBox="0 0 32 32" fill="none" xmlns="http://www.w3.org/2000/svg">
<path d="M0.0859375 31.3752H31.9225L0.0859375 0.624023V31.3752ZM1.07444 27.0786H4.03993V26.1238H1.07444V23.2594H3.05143V22.3046H1.07444V19.4402H4.03993V18.4854H1.07444V15.621H3.05143V14.6662H1.07444V11.8018H4.03993V10.847H1.07444V2.92891L29.5363 30.4204H1.07444V27.0786Z" fill="#333333"/>
<path d="M6.51118 13.9912V27.0786H20.0605L6.51118 13.9912ZM7.49968 16.2961L17.6743 26.1238H7.49968V16.2961Z" fill="#333333"/>
<path d="M31.9047 22.9611L30.6829 18.2415L12.4437 0.624023L8.7793 4.16346L27.0186 21.7809L31.9047 22.9611ZM30.5455 21.6482L27.5237 20.9187L13.1425 7.02786L15.4092 4.8385L29.7903 18.7294L30.5455 21.6482ZM12.4437 1.97411L14.7103 4.16346L12.4437 6.35281L10.177 4.16346L12.4437 1.97411Z" fill="#FBD846"/>
</svg>
