<svg width="32" height="31" viewBox="0 0 32 31" fill="none" xmlns="http://www.w3.org/2000/svg">
<path d="M30.869 29.4966C27.6615 29.4966 24.4455 29.4966 21.238 29.4966C15.9092 29.4966 10.5805 29.4966 5.25176 29.4966C3.71215 29.4966 2.1811 29.4966 0.641501 29.4966C0.855335 29.6591 1.06917 29.8215 1.283 29.984C1.283 27.9045 1.283 25.8249 1.283 23.7454C1.283 19.5864 1.283 15.4273 1.283 11.2683C1.283 8.15552 1.283 5.04274 1.283 1.93645C1.283 1.67002 1.283 1.41008 1.283 1.14364C1.06917 1.3061 0.855335 1.46856 0.641501 1.63102C3.84901 1.63102 7.06506 1.63102 10.2726 1.63102C15.6013 1.63102 20.93 1.63102 26.2588 1.63102C27.7984 1.63102 29.3294 1.63102 30.869 1.63102C30.6552 1.46856 30.4414 1.3061 30.2275 1.14364C30.2275 3.22316 30.2275 5.30268 30.2275 7.3822C30.2275 11.5412 30.2275 15.7003 30.2275 19.8593C30.2275 22.9721 30.2275 26.0849 30.2275 29.1912C30.2275 29.4576 30.2275 29.7175 30.2275 29.984C30.2275 30.6143 31.5105 30.6143 31.5105 29.984C31.5105 27.9045 31.5105 25.8249 31.5105 23.7454C31.5105 19.5864 31.5105 15.4273 31.5105 11.2683C31.5105 8.15552 31.5105 5.04274 31.5105 1.93645C31.5105 1.67002 31.5105 1.41008 31.5105 1.14364C31.5105 0.877199 31.2197 0.65625 30.869 0.65625C27.6615 0.65625 24.4455 0.65625 21.238 0.65625C15.9092 0.65625 10.5805 0.65625 5.25176 0.65625C3.71215 0.65625 2.1811 0.65625 0.641501 0.65625C0.290814 0.65625 0 0.877199 0 1.14364C0 3.22316 0 5.30268 0 7.3822C0 11.5412 0 15.7003 0 19.8593C0 22.9721 0 26.0849 0 29.1912C0 29.4576 0 29.7175 0 29.984C0 30.2504 0.290814 30.4714 0.641501 30.4714C3.84901 30.4714 7.06506 30.4714 10.2726 30.4714C15.6013 30.4714 20.93 30.4714 26.2588 30.4714C27.7984 30.4714 29.3294 30.4714 30.869 30.4714C31.6987 30.4714 31.6987 29.4966 30.869 29.4966Z" fill="#333333"/>
<path d="M15.1777 1.13198C15.1777 3.22452 15.1777 5.31707 15.1777 7.40962C15.1777 11.5947 15.1777 15.7798 15.1777 19.9649C15.1777 23.0972 15.1777 26.2295 15.1777 29.3552C15.1777 29.6233 15.1777 29.8849 15.1777 30.153C15.1777 30.7873 16.4662 30.7873 16.4662 30.153C16.4662 28.0604 16.4662 25.9679 16.4662 23.8754C16.4662 19.6903 16.4662 15.5052 16.4662 11.3201C16.4662 8.18778 16.4662 5.0555 16.4662 1.92976C16.4662 1.66165 16.4662 1.40009 16.4662 1.13198C16.4662 0.497674 15.1777 0.497674 15.1777 1.13198Z" fill="#FBD846"/>
<path d="M0.644436 1.85684C3.8656 1.85684 7.09535 1.85684 10.3165 1.85684C15.6679 1.85684 21.0193 1.85684 26.3708 1.85684C27.9169 1.85684 29.4545 1.85684 31.0006 1.85684C31.8339 1.85684 31.8339 0.612305 31.0006 0.612305C27.7795 0.612305 24.5497 0.612305 21.3286 0.612305C15.9772 0.612305 10.6257 0.612305 5.27432 0.612305C3.72816 0.612305 2.19059 0.612305 0.644436 0.612305C-0.18877 0.612305 -0.18877 1.85684 0.644436 1.85684Z" fill="#333333"/>
<path d="M31.0004 29.4031C27.7793 29.4031 24.5495 29.4031 21.3284 29.4031C15.977 29.4031 10.6255 29.4031 5.27411 29.4031C3.72796 29.4031 2.19039 29.4031 0.644232 29.4031C0.858976 29.6105 1.07372 29.8179 1.28846 30.0253C1.28846 26.8642 1.28846 23.7114 1.28846 20.5503C1.28846 15.4228 1.28846 10.2953 1.28846 5.16779C1.28846 3.85688 1.28846 2.54597 1.28846 1.22676C1.07372 1.43418 0.858976 1.64161 0.644232 1.84903C3.86539 1.84903 7.09514 1.84903 10.3163 1.84903C15.6677 1.84903 21.0191 1.84903 26.3706 1.84903C27.9167 1.84903 29.4543 1.84903 31.0004 1.84903C30.7857 1.64161 30.571 1.43418 30.3562 1.22676C30.3562 4.38788 30.3562 7.54071 30.3562 10.7018C30.3562 15.8293 30.3562 20.9568 30.3562 26.0843C30.3562 27.3952 30.3562 28.7061 30.3562 30.0253C30.3562 30.8301 31.6447 30.8301 31.6447 30.0253C31.6447 26.8642 31.6447 23.7114 31.6447 20.5503C31.6447 15.4228 31.6447 10.2953 31.6447 5.16779C31.6447 3.85688 31.6447 2.54597 31.6447 1.22676C31.6447 0.886587 31.3526 0.604492 31.0004 0.604492C27.7793 0.604492 24.5495 0.604492 21.3284 0.604492C15.977 0.604492 10.6255 0.604492 5.27411 0.604492C3.72796 0.604492 2.19039 0.604492 0.644232 0.604492C0.292052 0.604492 0 0.886587 0 1.22676C0 4.38788 0 7.54071 0 10.7018C0 15.8293 0 20.9568 0 26.0843C0 27.3952 0 28.7061 0 30.0253C0 30.3655 0.292052 30.6476 0.644232 30.6476C3.86539 30.6476 7.09514 30.6476 10.3163 30.6476C15.6677 30.6476 21.0191 30.6476 26.3706 30.6476C27.9167 30.6476 29.4543 30.6476 31.0004 30.6476C31.8337 30.6476 31.8337 29.4031 31.0004 29.4031Z" fill="#333333"/>
<path d="M17.4434 14.3025C17.4434 15.1902 17.4434 16.0697 17.4434 16.9575C17.4434 17.7623 18.7318 17.7623 18.7318 16.9575C18.7318 16.0697 18.7318 15.1902 18.7318 14.3025C18.7318 13.506 17.4434 13.506 17.4434 14.3025Z" fill="#FBD846"/>
<path d="M12.9102 14.3025C12.9102 15.1902 12.9102 16.0697 12.9102 16.9575C12.9102 17.7623 14.1986 17.7623 14.1986 16.9575C14.1986 16.0697 14.1986 15.1902 14.1986 14.3025C14.1986 13.506 12.9102 13.506 12.9102 14.3025Z" fill="#FBD846"/>
</svg>
