<svg width="28" height="33" viewBox="0 0 28 33" fill="none" xmlns="http://www.w3.org/2000/svg">
<path d="M25.5496 16.8604V30.3279C25.5496 30.9623 25.0985 31.4502 24.5121 31.4502H3.62732C3.04092 31.4502 2.58984 30.9623 2.58984 30.3279V16.8604" stroke="#333333" stroke-width="1.5"/>
<path fill-rule="evenodd" clip-rule="evenodd" d="M26.4517 15.6893C26.4517 16.3236 26.0007 16.8116 25.4143 16.8116H2.68005C2.09365 16.8116 1.64258 16.3236 1.64258 15.6893V10.6633C1.64258 10.029 2.09365 9.54102 2.68005 9.54102H25.4143C26.0007 9.54102 26.4517 10.029 26.4517 10.6633V15.6893Z" stroke="#333333" stroke-width="1.5"/>
<path fill-rule="evenodd" clip-rule="evenodd" d="M20.7237 5.97926C19.7314 7.05276 15.2206 10.1757 14.1831 9.10218C13.1908 8.02867 16.0777 3.10031 17.07 2.02681C18.0624 0.953304 19.6863 0.953304 20.7237 2.02681C21.7161 3.10031 21.7161 4.90575 20.7237 5.97926Z" stroke="#FBD846" stroke-width="1.5"/>
<path fill-rule="evenodd" clip-rule="evenodd" d="M7.32631 5.97831C8.31867 7.05182 12.8745 10.2235 13.8669 9.15003C14.8593 8.07652 11.9724 3.14816 10.9349 2.07466C9.94254 1.00116 8.31867 1.00116 7.32631 2.07466C6.33394 3.09937 6.33394 4.85601 7.32631 5.97831Z" stroke="#FBD846" stroke-width="1.5"/>
<path d="M10.9355 13.4939C10.9355 13.4939 11.6122 11.2493 14.2284 10.127V31.4019" stroke="#FBD846" stroke-width="1.5"/>
<path d="M14.0469 10.1758C14.0469 10.1758 15.0843 14.0794 18.693 14.665" stroke="#FBD846" stroke-width="1.5"/>
</svg>
