<svg width="32" height="31" viewBox="0 0 32 31" fill="none" xmlns="http://www.w3.org/2000/svg">
<path d="M31.2197 2.60325H25.3672L18.152 0.329504C17.7188 0.192567 17.2593 0.15065 16.8072 0.206804C16.355 0.262958 15.9215 0.41577 15.5382 0.65412L11.1907 3.35187C11.1438 3.38093 11.1033 3.41863 11.0715 3.46281C11.0396 3.507 11.0171 3.55681 11.0052 3.60939C10.9934 3.66198 10.9923 3.71631 11.0022 3.76929C11.012 3.82227 11.0326 3.87285 11.0626 3.91816C11.0927 3.96346 11.1318 4.0026 11.1775 4.03334C11.2232 4.06407 11.2748 4.0858 11.3293 4.09729C11.3837 4.10878 11.4399 4.10979 11.4948 4.10028C11.5496 4.09077 11.602 4.07092 11.6489 4.04186L15.9964 1.34768C16.274 1.17546 16.588 1.06529 16.9153 1.02521C17.2427 0.985132 17.5751 1.01616 17.8885 1.11602L25.1703 3.40406C25.2126 3.41749 25.2569 3.42425 25.3014 3.42408H30.7962V10.3104H27.6391C27.5613 10.3105 27.485 10.3312 27.4186 10.3703C27.3521 10.4094 27.2981 10.4653 27.2623 10.532C26.7867 11.309 26.0604 11.9139 25.1948 12.2538V10.4112C25.8751 10.1309 26.6012 9.64327 27.0646 8.79312C27.0907 8.74542 27.1069 8.69322 27.1121 8.63951C27.1173 8.58579 27.1115 8.53161 27.095 8.48005C27.0786 8.4285 27.0518 8.38058 27.0161 8.33903C26.9805 8.29748 26.9367 8.26312 26.8873 8.23791C26.838 8.2127 26.7839 8.19713 26.7283 8.19209C26.6727 8.18706 26.6166 8.19265 26.5632 8.20855C26.5098 8.22445 26.4602 8.25035 26.4172 8.28477C26.3742 8.31919 26.3386 8.36146 26.3125 8.40916C25.5057 9.89925 23.4996 9.96574 23.4885 9.96574C20.8014 9.96574 20.0256 8.1539 19.9945 8.07882C19.9637 8.00147 19.9094 7.93494 19.8387 7.88797C19.768 7.841 19.6843 7.81581 19.5985 7.8157H15.6107C15.4595 7.81943 15.3091 7.79389 15.1682 7.74057C15.0274 7.68725 14.899 7.60724 14.7907 7.50526C14.6824 7.40327 14.5963 7.28137 14.5375 7.14674C14.4787 7.01211 14.4485 6.86748 14.4485 6.72137C14.4485 6.57526 14.4787 6.43063 14.5375 6.296C14.5963 6.16137 14.6824 6.03947 14.7907 5.93748C14.899 5.83549 15.0274 5.75548 15.1682 5.70217C15.3091 5.64885 15.4595 5.62331 15.6107 5.62704H20.3706C20.4278 5.62935 20.4849 5.62045 20.5385 5.60089C20.5921 5.58132 20.6411 5.55149 20.6824 5.51318C20.7237 5.47488 20.7566 5.42889 20.7791 5.37799C20.8016 5.32709 20.8132 5.27232 20.8132 5.21698C20.8132 5.16164 20.8016 5.10687 20.7791 5.05597C20.7566 5.00507 20.7237 4.95908 20.6824 4.92078C20.6411 4.88247 20.5921 4.85264 20.5385 4.83307C20.4849 4.81351 20.4278 4.80461 20.3706 4.80692H15.6107C15.3472 4.802 15.0854 4.84788 14.8404 4.94188C14.5955 5.03589 14.3724 5.17612 14.1843 5.35438C13.9961 5.53264 13.8467 5.74535 13.7446 5.98007C13.6426 6.21479 13.59 6.4668 13.59 6.72137C13.59 6.97594 13.6426 7.22795 13.7446 7.46267C13.8467 7.69739 13.9961 7.9101 14.1843 8.08836C14.3724 8.26662 14.5955 8.40685 14.8404 8.50085C15.0854 8.59486 15.3472 8.64074 15.6107 8.63582H19.3327C19.6873 9.26432 20.8228 10.7859 23.4974 10.7859C23.7832 10.7736 24.0672 10.7356 24.3457 10.6722V16.7498C24.3455 16.9102 24.2795 17.0639 24.1621 17.1773C24.0447 17.2907 23.8855 17.3545 23.7194 17.3547H1.81321C1.64737 17.3545 1.48834 17.2909 1.37086 17.1779C1.25338 17.0648 1.187 16.9114 1.18622 16.7512V6.23194C1.18641 6.07157 1.25246 5.91782 1.36986 5.80442C1.48726 5.69102 1.64644 5.62723 1.81247 5.62704H12.6372C12.6944 5.62935 12.7515 5.62045 12.8051 5.60089C12.8587 5.58132 12.9077 5.55149 12.949 5.51318C12.9903 5.47488 13.0232 5.42889 13.0457 5.37799C13.0682 5.32709 13.0798 5.27232 13.0798 5.21698C13.0798 5.16164 13.0682 5.10687 13.0457 5.05597C13.0232 5.00507 12.9903 4.95908 12.949 4.92078C12.9077 4.88247 12.8587 4.85264 12.8051 4.83307C12.7515 4.81351 12.6944 4.80461 12.6372 4.80692H1.81321C1.42235 4.80824 1.04789 4.9588 0.77151 5.22576C0.49513 5.49271 0.339256 5.85441 0.337891 6.23194V16.7512C0.339256 17.1288 0.49513 17.4905 0.77151 17.7574C1.04789 18.0244 1.42235 18.1749 1.81321 18.1762H23.7194C24.1103 18.1749 24.4848 18.0244 24.7611 17.7574C25.0375 17.4905 25.1934 17.1288 25.1948 16.7512V13.1225C26.7167 12.6542 27.5687 11.5938 27.8797 11.1298H31.2197C31.3322 11.1298 31.4402 11.0866 31.5199 11.0098C31.5995 10.933 31.6444 10.8288 31.6446 10.7201V3.01367C31.6446 2.90482 31.5998 2.80042 31.5201 2.72346C31.4404 2.64649 31.3324 2.60325 31.2197 2.60325Z" fill="black"/>
<path d="M3.21525 13.6515V9.32921C3.66186 9.2463 4.07247 9.03596 4.39405 8.72534C4.71563 8.41472 4.9334 8.01811 5.01924 7.58672H12.2685C12.378 7.5823 12.4816 7.53717 12.5574 7.46075C12.6333 7.38433 12.6757 7.28255 12.6757 7.17666C12.6757 7.07078 12.6333 6.96899 12.5574 6.89257C12.4816 6.81615 12.378 6.77102 12.2685 6.7666H4.63505C4.52236 6.7666 4.41428 6.80984 4.3346 6.88681C4.25491 6.96378 4.21014 7.06817 4.21014 7.17702C4.21044 7.35727 4.17396 7.5358 4.10279 7.70243C4.03163 7.86906 3.92717 8.02051 3.79539 8.14813C3.6636 8.27575 3.50708 8.37704 3.33476 8.44621C3.16244 8.51539 2.97769 8.55109 2.79108 8.55127C2.67954 8.55202 2.57278 8.5951 2.49384 8.67122C2.4149 8.74734 2.37011 8.85038 2.36914 8.95812V14.0233C2.36914 14.0771 2.38014 14.1305 2.4015 14.1802C2.42286 14.23 2.45417 14.2752 2.49364 14.3132C2.5331 14.3513 2.57995 14.3814 2.6315 14.402C2.68304 14.4225 2.73828 14.4331 2.79404 14.433C3.17035 14.4335 3.53106 14.5782 3.79708 14.8353C4.0631 15.0924 4.21271 15.4409 4.21311 15.8044C4.2131 15.8582 4.2241 15.9116 4.24546 15.9613C4.26683 16.0111 4.29814 16.0563 4.3376 16.0943C4.37707 16.1324 4.42391 16.1625 4.47546 16.1831C4.52701 16.2036 4.58224 16.2142 4.63801 16.2141H20.8947C20.9504 16.2142 21.0057 16.2036 21.0572 16.1831C21.1087 16.1625 21.1556 16.1324 21.1951 16.0943C21.2345 16.0563 21.2658 16.0111 21.2872 15.9613C21.3086 15.9116 21.3196 15.8582 21.3196 15.8044C21.3199 15.4409 21.4696 15.0924 21.7356 14.8353C22.0016 14.5782 22.3623 14.4335 22.7386 14.433C22.7944 14.4331 22.8496 14.4225 22.9012 14.402C22.9527 14.3814 22.9996 14.3513 23.039 14.3132C23.0785 14.2752 23.1098 14.23 23.1312 14.1802C23.1525 14.1305 23.1635 14.0771 23.1635 14.0233V12.17C23.1659 12.1147 23.1567 12.0595 23.1364 12.0077C23.1162 11.956 23.0853 11.9087 23.0456 11.8687C23.006 11.8288 22.9584 11.797 22.9057 11.7753C22.853 11.7536 22.7963 11.7424 22.739 11.7424C22.6817 11.7424 22.625 11.7536 22.5723 11.7753C22.5196 11.797 22.472 11.8288 22.4323 11.8687C22.3927 11.9087 22.3618 11.956 22.3415 12.0077C22.3213 12.0595 22.3121 12.1147 22.3145 12.17V13.6515C21.8679 13.7346 21.4574 13.945 21.1359 14.2555C20.8143 14.5661 20.5965 14.9626 20.5105 15.394H5.01924C4.93322 14.9626 4.71538 14.5661 4.39383 14.2555C4.07229 13.945 3.66177 13.7346 3.21525 13.6515Z" fill="#FBD846"/>
<path d="M12.206 10.1424H13.2275C13.3371 10.1379 13.4406 10.0928 13.5165 10.0164C13.5923 9.93998 13.6347 9.83819 13.6347 9.7323C13.6347 9.62642 13.5923 9.52463 13.5165 9.44822C13.4406 9.3718 13.3371 9.32666 13.2275 9.32224H12.8937V9.0584C12.8961 9.00311 12.8869 8.94793 12.8666 8.89616C12.8464 8.8444 12.8155 8.79713 12.7758 8.75719C12.7362 8.71725 12.6885 8.68547 12.6358 8.66376C12.5831 8.64205 12.5264 8.63086 12.4692 8.63086C12.4119 8.63086 12.3552 8.64205 12.3025 8.66376C12.2498 8.68547 12.2022 8.71725 12.1625 8.75719C12.1228 8.79713 12.092 8.8444 12.0717 8.89616C12.0514 8.94793 12.0422 9.00311 12.0446 9.0584V9.33225C11.6956 9.35771 11.371 9.51476 11.1409 9.76949C10.9109 10.0242 10.7938 10.3561 10.8149 10.6936C10.8361 11.031 10.9939 11.3468 11.2542 11.5728C11.5145 11.7988 11.8564 11.9168 12.206 11.9013H12.7316C12.8608 11.9013 12.9846 11.9509 13.076 12.0391C13.1673 12.1273 13.2187 12.247 13.2187 12.3718C13.2187 12.4966 13.1673 12.6162 13.076 12.7045C12.9846 12.7927 12.8608 12.8423 12.7316 12.8423H11.7115C11.6543 12.8399 11.5971 12.8488 11.5435 12.8684C11.49 12.888 11.441 12.9178 11.3997 12.9561C11.3583 12.9944 11.3254 13.0404 11.3029 13.0913C11.2805 13.1422 11.2689 13.197 11.2689 13.2523C11.2689 13.3077 11.2805 13.3624 11.3029 13.4133C11.3254 13.4642 11.3583 13.5102 11.3997 13.5485C11.441 13.5868 11.49 13.6167 11.5435 13.6362C11.5971 13.6558 11.6543 13.6647 11.7115 13.6624H12.0446V13.9262C12.0492 14.032 12.0959 14.132 12.175 14.2053C12.2542 14.2786 12.3595 14.3195 12.4692 14.3195C12.5788 14.3195 12.6842 14.2786 12.7633 14.2053C12.8424 14.132 12.8891 14.032 12.8937 13.9262V13.6502C13.243 13.6251 13.568 13.4681 13.7983 13.2132C14.0287 12.9584 14.1459 12.6261 14.1246 12.2885C14.1032 11.9508 13.9451 11.6348 13.6844 11.4088C13.4238 11.1829 13.0814 11.0652 12.7316 11.0812H12.206C12.1406 11.0836 12.0753 11.0733 12.0141 11.0508C11.9529 11.0284 11.8971 10.9942 11.8499 10.9504C11.8027 10.9065 11.7652 10.8539 11.7395 10.7958C11.7139 10.7376 11.7007 10.675 11.7007 10.6118C11.7007 10.5485 11.7139 10.486 11.7395 10.4278C11.7652 10.3696 11.8027 10.317 11.8499 10.2732C11.8971 10.2293 11.9529 10.1952 12.0141 10.1727C12.0753 10.1502 12.1406 10.1399 12.206 10.1424Z" fill="#FBD846"/>
<path d="M7.79038 11.2017C7.71192 11.2777 7.66729 11.3803 7.66602 11.4877C7.66597 11.5148 7.66894 11.5419 7.6749 11.5685C7.6801 11.5945 7.6883 11.6199 7.69933 11.6443C7.70948 11.6695 7.72265 11.6935 7.73856 11.7158C7.75354 11.738 7.77091 11.7586 7.79038 11.7772C7.8101 11.7963 7.83167 11.8136 7.85478 11.8287C7.87816 11.8434 7.90295 11.8558 7.92881 11.8659C7.95467 11.8763 7.98142 11.8844 8.00875 11.8902C8.0361 11.8951 8.06385 11.8975 8.09166 11.8974C8.20407 11.897 8.31179 11.8538 8.39146 11.7772C8.41118 11.7584 8.42902 11.7378 8.44476 11.7158C8.45957 11.6928 8.47268 11.6689 8.48399 11.6443C8.49378 11.6196 8.5017 11.5942 8.50768 11.5685C8.5134 11.5419 8.51613 11.5148 8.51583 11.4877C8.51519 11.4068 8.48982 11.328 8.44289 11.261C8.39596 11.1941 8.32958 11.1421 8.2521 11.1115C8.17463 11.0809 8.08952 11.0732 8.00749 11.0892C7.92546 11.1053 7.85018 11.1444 7.79112 11.2017H7.79038Z" fill="#FBD846"/>
<path d="M17.0871 11.7187C17.103 11.7406 17.1208 11.7612 17.1404 11.7801C17.1845 11.8232 17.2381 11.8562 17.2971 11.8767C17.3561 11.8973 17.4191 11.9049 17.4816 11.899C17.544 11.8931 17.6043 11.8739 17.6581 11.8427C17.7119 11.8115 17.7578 11.7691 17.7925 11.7187C17.8084 11.6964 17.8216 11.6724 17.8318 11.6472C17.8428 11.6228 17.851 11.5974 17.8562 11.5714C17.8621 11.5453 17.865 11.5187 17.8651 11.492C17.8675 11.4367 17.8582 11.3815 17.838 11.3298C17.8177 11.278 17.7868 11.2307 17.7472 11.1908C17.7075 11.1508 17.6599 11.1191 17.6072 11.0974C17.5545 11.0756 17.4978 11.0645 17.4405 11.0645C17.3832 11.0645 17.3265 11.0756 17.2738 11.0974C17.2211 11.1191 17.1735 11.1508 17.1339 11.1908C17.0942 11.2307 17.0633 11.278 17.0431 11.3298C17.0228 11.3815 17.0136 11.4367 17.016 11.492C17.0162 11.5186 17.0189 11.5452 17.0241 11.5714C17.03 11.5973 17.0382 11.6226 17.0486 11.6472C17.0593 11.672 17.0722 11.6959 17.0871 11.7187Z" fill="#FBD846"/>
<path d="M27.7981 17.931C27.4018 17.6302 26.9031 17.484 26.4005 17.5214C25.898 17.5587 25.4283 17.7768 25.0843 18.1327L22.3994 20.9362C22.3589 20.9753 22.327 21.0218 22.3056 21.0731C22.2841 21.1243 22.2736 21.1792 22.2747 21.2345C22.2758 21.2898 22.2884 21.3442 22.3118 21.3947C22.3353 21.4451 22.369 21.4905 22.411 21.528C22.453 21.5655 22.5024 21.5945 22.5563 21.6131C22.6102 21.6318 22.6674 21.6397 22.7245 21.6365C22.7816 21.6332 22.8375 21.6188 22.8887 21.5942C22.94 21.5696 22.9855 21.5353 23.0227 21.4932L25.7076 18.6897C25.9056 18.4846 26.1761 18.359 26.4656 18.3375C26.755 18.3161 27.0422 18.4004 27.2703 18.5738C27.3899 18.6656 27.4894 18.7794 27.5631 18.9086C27.6368 19.0379 27.6832 19.18 27.6995 19.3267C27.7158 19.4734 27.7018 19.6217 27.6582 19.7632C27.6146 19.9046 27.5424 20.0362 27.4457 20.1504L22.7718 25.6718C22.4323 26.0739 21.9488 26.338 21.4171 26.4118L12.3698 27.6767C11.9102 27.7422 11.4724 27.909 11.0902 28.1642C10.7081 28.4193 10.3919 28.756 10.166 29.1482L9.91879 29.5772H1.59615L5.90737 23.423C6.52429 22.5358 7.38075 21.8284 8.38403 21.3776C9.3873 20.9268 10.4991 20.7497 11.5992 20.8654C12.3287 20.9385 13.0472 21.0918 13.7407 21.3223C14.2119 21.4851 14.7083 21.5692 15.2086 21.5712H19.5354C19.8671 21.5715 20.185 21.699 20.4196 21.9255C20.6541 22.152 20.786 22.4592 20.7864 22.7795C20.786 23.1253 20.6436 23.4568 20.3905 23.7013C20.1374 23.9458 19.7942 24.0833 19.4362 24.0837H15.4721C14.8233 24.0836 14.1948 24.3027 13.6955 24.7029L12.7643 25.4494C12.681 25.5199 12.6295 25.619 12.6207 25.7256C12.6119 25.8322 12.6466 25.938 12.7173 26.0203C12.7881 26.1026 12.8893 26.1549 12.9994 26.1662C13.1095 26.1775 13.2199 26.1469 13.3069 26.0807L14.2374 25.3343C14.5833 25.0573 15.0184 24.9056 15.4677 24.9053H19.4347C20.0178 24.9045 20.5767 24.6805 20.989 24.2822C21.4013 23.884 21.6332 23.3441 21.634 22.781C21.6332 22.2432 21.4117 21.7277 21.018 21.3474C20.6244 20.9672 20.0906 20.7532 19.5339 20.7525H15.2086C14.8048 20.7504 14.4043 20.6819 14.0242 20.5501C13.2695 20.298 12.4874 20.1301 11.6932 20.0496C10.4394 19.917 9.172 20.1183 8.02818 20.6316C6.88437 21.145 5.90777 21.9508 5.20413 22.9619L0.444323 29.7545C0.400224 29.8162 0.374479 29.8884 0.369885 29.9633C0.365291 30.0382 0.382024 30.1128 0.418266 30.1791C0.454508 30.2455 0.508874 30.3009 0.575457 30.3395C0.642041 30.3781 0.718297 30.3983 0.795942 30.398H10.169C10.2449 30.3975 10.3193 30.3774 10.3844 30.3396C10.4495 30.3019 10.5029 30.248 10.5391 30.1835L10.9092 29.54C11.0716 29.2584 11.2989 29.0166 11.5734 28.8333C11.848 28.6501 12.1625 28.5303 12.4926 28.4832L21.5422 27.2233C22.2841 27.1203 22.9589 26.7518 23.4328 26.1909L28.1067 20.6695C28.2751 20.4713 28.4009 20.2427 28.4768 19.997C28.5527 19.7513 28.5772 19.4934 28.5488 19.2385C28.5204 18.9836 28.4397 18.7366 28.3115 18.5122C28.1832 18.2877 28.0099 18.0901 27.8018 17.931H27.7981Z" fill="black"/>
</svg>
