<svg width="14.001953" height="14.001953" viewBox="0 0 14.002 14.002" fill="none" xmlns="http://www.w3.org/2000/svg" xmlns:xlink="http://www.w3.org/1999/xlink">
	<desc>
			Created with Pixso.
	</desc>
	<defs/>
	<path id="Vector" d="M6.30469 12.0215L8.1543 10.1777L11.209 12.3027L10.5234 12.9863C10.0684 13.4414 9.39844 13.6113 8.7793 13.4258C6.88867 12.8633 5.18945 11.8301 3.68359 10.3281C2.17578 8.82617 1.14062 7.13086 0.576172 5.24609C0.390625 4.62891 0.560547 3.96094 1.01562 3.50586L1.70117 2.82227L3.83203 5.86914L1.98438 7.71289M6.15234 5.08984C7.65039 4.92383 8.93359 6.15039 8.82812 7.64844L8.80273 7.99609M6.15234 2.99609C8.85938 2.69531 11.1758 4.91211 10.9863 7.62109L10.9414 8.24805M6.15234 0.541016C10.2578 0.0839844 13.7734 3.44922 13.4844 7.55859L13.418 8.51172" stroke="#FBD846" stroke-opacity="1.000000" stroke-width="1.000000"/>
</svg>
