<svg width="26" height="26" viewBox="0 0 26 26" fill="none" xmlns="http://www.w3.org/2000/svg">
<path d="M11.8234 21.7595L15.1118 18.4711L20.5462 22.2613L19.3271 23.4804C18.5151 24.2923 17.3232 24.5936 16.2229 24.2649C12.8591 23.26 9.8374 21.4177 7.15771 18.738C4.47802 16.0583 2.63573 13.0366 1.63084 9.67282C1.30213 8.57254 1.60337 7.38061 2.41537 6.56861L3.63443 5.34955L7.42462 10.7839L4.13623 14.0723M16.2653 14.5797L16.3088 13.9595C16.4963 11.2864 14.2149 9.09727 11.5518 9.39489M20.0698 15.0293L20.1484 13.9084C20.4872 9.07775 16.3645 5.12173 11.5519 5.65957M24.4751 15.4976L24.5943 13.7971C25.1084 6.46804 18.8534 0.465981 11.5517 1.28199" stroke="white" stroke-width="2"/>
</svg>
